<svg width="281" height="631" viewBox="0 0 281 631" fill="none" xmlns="http://www.w3.org/2000/svg">
<rect width="161.866" height="161.866" transform="matrix(0.866025 0.5 -0.866025 0.5 140.18 47.9731)" fill="url(#paint0_linear_71_672)"/>
<g filter="url(#filter0_f_71_672)">
<rect width="72.6926" height="73.1999" rx="36.3463" transform="matrix(0.866025 0.5 -0.866025 0.5 139.693 91.04)" fill="#DAA2C6"/>
</g>
<path d="M0.437272 696.279L0.157227 128.907L140.18 209.84L139.9 696.279H0.437272Z" fill="url(#paint1_linear_71_672)"/>
<path d="M279.924 703L280.204 128.907L140.181 209.84L140.461 703H279.924Z" fill="url(#paint2_linear_71_672)"/>
<circle cx="140.284" cy="66.371" r="64.3924" fill="white" stroke="url(#paint3_linear_71_672)" stroke-width="3.06631"/>
<circle cx="139.977" cy="66.0641" r="57.1866" fill="#F7C0EC"/>
<mask id="mask0_71_672" style="mask-type:alpha" maskUnits="userSpaceOnUse" x="82" y="8" width="116" height="116">
<circle cx="139.977" cy="66.0641" r="57.1866" fill="#C4C4C4"/>
</mask>
<g mask="url(#mask0_71_672)">
<ellipse cx="139.977" cy="109.526" rx="43.4618" ry="25.1621" fill="#E956CB"/>
</g>
<circle cx="139.977" cy="57.4851" r="20.5872" fill="#E956CB"/>
<defs>
<filter id="filter0_f_71_672" x="15.2709" y="22.1708" width="248.406" height="210.685" filterUnits="userSpaceOnUse" color-interpolation-filters="sRGB">
<feFlood flood-opacity="0" result="BackgroundImageFix"/>
<feBlend mode="normal" in="SourceGraphic" in2="BackgroundImageFix" result="shape"/>
<feGaussianBlur stdDeviation="39.7889" result="effect1_foregroundBlur_71_672"/>
</filter>
<linearGradient id="paint0_linear_71_672" x1="46.9533" y1="10.736" x2="113.029" y2="220.782" gradientUnits="userSpaceOnUse">
<stop stop-color="#FADEEB"/>
<stop offset="1" stop-color="#F6EFF2"/>
</linearGradient>
<linearGradient id="paint1_linear_71_672" x1="70.1686" y1="656.232" x2="-177.757" y2="438.398" gradientUnits="userSpaceOnUse">
<stop stop-color="#F2F2F2"/>
<stop offset="1" stop-color="#FBF9FA"/>
</linearGradient>
<linearGradient id="paint2_linear_71_672" x1="161.744" y1="701.6" x2="475.288" y2="503.691" gradientUnits="userSpaceOnUse">
<stop stop-color="#F6EFF2"/>
<stop offset="1" stop-color="#EDD8E5"/>
</linearGradient>
<linearGradient id="paint3_linear_71_672" x1="43.4888" y1="3.51172" x2="237.078" y2="129.23" gradientUnits="userSpaceOnUse">
<stop stop-color="#F875B4"/>
<stop offset="0.999" stop-color="#AB2BF8"/>
</linearGradient>
</defs>
</svg>
