<svg width="40" height="40" viewBox="0 0 40 40" fill="none" xmlns="http://www.w3.org/2000/svg">
<path fill-rule="evenodd" clip-rule="evenodd" d="M20 40C31.0457 40 40 31.0457 40 20C40 8.95431 31.0457 0 20 0C8.95431 0 0 8.95431 0 20C0 31.0457 8.95431 40 20 40ZM10.6451 21.6111L16.0153 27.2846L16.0427 27.2702C16.1158 27.3481 16.2038 27.4105 16.3014 27.4539C16.399 27.4973 16.5043 27.5208 16.6111 27.523C16.7178 27.5252 16.824 27.5061 16.9233 27.4667C17.0226 27.4274 17.1131 27.3686 17.1894 27.2939L28.5848 16.0961C28.7358 15.9471 28.8214 15.7442 28.8228 15.5321C28.8243 15.32 28.7414 15.116 28.5924 14.9649L26.9029 13.2549C26.8287 13.1778 26.7399 13.1162 26.6417 13.0739C26.5434 13.0316 26.4377 13.0094 26.3308 13.0085C26.2238 13.0076 26.1177 13.0282 26.0188 13.0688C25.9198 13.1095 25.8301 13.1696 25.7547 13.2455L16.6934 22.1503L13.5716 18.8522C13.4992 18.7738 13.4119 18.7106 13.3149 18.6663C13.2178 18.622 13.1128 18.5975 13.0062 18.5943C12.8995 18.591 12.7932 18.609 12.6936 18.6473C12.594 18.6856 12.5031 18.7434 12.426 18.8172L10.6773 20.4653C10.5986 20.5376 10.5353 20.625 10.4911 20.7222C10.4468 20.8195 10.4224 20.9246 10.4194 21.0314C10.4164 21.1382 10.4349 21.2445 10.4736 21.3441C10.5124 21.4436 10.5707 21.5344 10.6451 21.6111Z" fill="#14B838"/>
</svg>
